<svg width="195" height="79" viewBox="0 0 195 79" fill="none" xmlns="http://www.w3.org/2000/svg">
<path d="M85.2339 14.2987C88.0738 14.2987 90.2036 15.0606 91.6236 16.5844C93.0435 18.1082 93.7534 20.342 93.7534 23.2857V26.8701C93.7534 29.8139 93.0435 32.0476 91.6236 33.5714C90.2036 35.0953 88.0738 35.8571 85.2339 35.8571H82.5326V50.6623H76.8184V14.2987H85.2339ZM85.2339 19.4935H82.5326V30.6623H85.2339C86.169 30.6623 86.8703 30.4026 87.3378 29.8831C87.8054 29.3636 88.0391 28.4805 88.0391 27.2338V22.9221C88.0391 21.6753 87.8054 20.7922 87.3378 20.2727C86.8703 19.7532 86.169 19.4935 85.2339 19.4935Z" fill="white"/>
<path d="M110.325 13.7792C113.13 13.7792 115.277 14.5757 116.766 16.1688C118.255 17.7619 119 20.0129 119 22.922V42.0389C119 44.948 118.255 47.1991 116.766 48.7922C115.277 50.3852 113.13 51.1818 110.325 51.1818C107.52 51.1818 105.372 50.3852 103.883 48.7922C102.394 47.1991 101.649 44.948 101.649 42.0389V22.922C101.649 20.0129 102.394 17.7619 103.883 16.1688C105.372 14.5757 107.52 13.7792 110.325 13.7792ZM110.325 18.974C108.351 18.974 107.364 20.1688 107.364 22.5584V42.4025C107.364 44.7922 108.351 45.987 110.325 45.987C112.299 45.987 113.286 44.7922 113.286 42.4025V22.5584C113.286 20.1688 112.299 18.974 110.325 18.974Z" fill="white"/>
<path d="M128.039 14.2987H133.753V45.4675H143.156V50.6623H128.039V14.2987Z" fill="white"/>
<path d="M163.468 14.2987L169.39 50.6623H163.676L162.637 43.4416V43.5455H156.143L155.104 50.6623H149.806L155.728 14.2987H163.468ZM159.416 20.6364H159.312L156.819 38.6104H161.962L159.416 20.6364Z" fill="white"/>
<path d="M185.805 14.2987C188.749 14.2987 190.896 14.9827 192.247 16.3507C193.598 17.7186 194.273 19.8225 194.273 22.6623V24.8961C194.273 28.671 193.026 31.0606 190.533 32.0649V32.1688C191.918 32.5844 192.896 33.4329 193.468 34.7143C194.039 35.9957 194.325 37.7099 194.325 39.8571V46.2468C194.325 47.2857 194.36 48.1255 194.429 48.7662C194.498 49.4069 194.671 50.039 194.948 50.6623H189.13C188.922 50.0736 188.784 49.5195 188.715 49L188.68 48.6754C188.639 48.1877 188.616 47.4802 188.611 46.5529L188.611 39.5455C188.611 37.8831 188.342 36.7229 187.805 36.0649C187.269 35.4069 186.342 35.0779 185.026 35.0779H183.052V50.6623H177.338V14.2987H185.805ZM185.65 19.4935H183.052V29.8831H185.13C186.273 29.8831 187.13 29.5888 187.702 29C188.273 28.4113 188.559 27.4243 188.559 26.039V23.2338C188.559 21.9177 188.325 20.9654 187.857 20.3766C187.39 19.7879 186.654 19.4935 185.65 19.4935Z" fill="white"/>
<path d="M139.343 64.7424L139.465 64.0911L140.767 64.0096L141.215 61.7708C141.419 60.7938 141.755 60.0713 142.223 59.6032C142.691 59.1351 143.25 58.901 143.902 58.901C144.241 58.901 144.529 58.9451 144.767 59.0333C145.004 59.1215 145.225 59.2267 145.428 59.3488L145.062 59.9797C144.913 59.8847 144.746 59.8033 144.563 59.7355C144.38 59.6676 144.16 59.6337 143.902 59.6337C143.413 59.6337 143.013 59.8406 142.701 60.2545C142.389 60.6683 142.172 61.1738 142.05 61.7708L141.602 64.0096H143.759L143.596 64.7424H141.439L139.648 73.7792H138.813L140.605 64.7424H139.343ZM146.812 74.0234C145.957 74.0234 145.269 73.7249 144.746 73.1279C144.224 72.5308 143.963 71.6557 143.963 70.5023C143.963 69.5661 144.112 68.6875 144.411 67.8666C144.709 67.0457 145.106 66.3299 145.601 65.7193C146.097 65.1087 146.663 64.6304 147.301 64.2844C147.938 63.9384 148.597 63.7654 149.275 63.7654C149.845 63.7654 150.34 63.9113 150.761 64.203C151.181 64.4947 151.527 64.878 151.799 65.353H151.86L152.247 64.0096H152.939L150.985 73.7792H150.272L150.496 72.2323H150.415C149.913 72.7479 149.356 73.1754 148.746 73.5146C148.135 73.8538 147.491 74.0234 146.812 74.0234ZM146.995 73.2907C147.633 73.2907 148.257 73.1075 148.868 72.7412C149.479 72.3748 150.076 71.8524 150.659 71.174L151.677 66.2688C151.324 65.6311 150.947 65.1766 150.547 64.9052C150.147 64.6338 149.716 64.4981 149.255 64.4981C148.671 64.4981 148.111 64.6643 147.576 64.9968C147.04 65.3292 146.568 65.7702 146.161 66.3197C145.754 66.8693 145.428 67.4934 145.184 68.1922C144.94 68.891 144.818 69.6068 144.818 70.3395C144.818 71.33 145.011 72.0695 145.398 72.558C145.784 73.0465 146.317 73.2907 146.995 73.2907ZM158.108 74.0234C157.05 74.0234 156.209 73.6876 155.584 73.0159C154.96 72.3443 154.648 71.3911 154.648 70.1563C154.648 69.2065 154.801 68.3415 155.106 67.5613C155.411 66.7811 155.812 66.1094 156.307 65.5463C156.802 64.9832 157.365 64.5456 157.996 64.2335C158.627 63.9214 159.268 63.7654 159.92 63.7654C160.49 63.7654 160.965 63.874 161.344 64.0911C161.724 64.3082 162.07 64.5931 162.382 64.9459L161.853 65.5158C161.555 65.163 161.26 64.9052 160.968 64.7424C160.676 64.5795 160.306 64.4981 159.859 64.4981C159.302 64.4981 158.763 64.6474 158.241 64.9459C157.718 65.2444 157.253 65.6447 156.846 66.1467C156.439 66.6488 156.114 67.2356 155.869 67.9073C155.625 68.5789 155.503 69.2879 155.503 70.0342C155.503 71.0926 155.727 71.8999 156.175 72.4562C156.622 73.0125 157.301 73.2907 158.21 73.2907C158.699 73.2907 159.153 73.1889 159.574 72.9854C159.994 72.7819 160.381 72.5444 160.734 72.273L161.161 72.8836C160.808 73.155 160.381 73.4128 159.879 73.657C159.377 73.9013 158.787 74.0234 158.108 74.0234ZM166.087 74.0234C165.707 74.0234 165.385 73.9725 165.12 73.8708C164.855 73.769 164.642 73.6299 164.479 73.4535C164.316 73.2771 164.201 73.0702 164.133 72.8327C164.065 72.5953 164.031 72.3477 164.031 72.0898C164.031 71.8999 164.038 71.7337 164.051 71.5912L164.088 71.2836C164.095 71.2286 164.103 71.1717 164.112 71.1129L165.435 64.7424H163.909L164.031 64.0911L165.619 64.0096L166.29 61.2213H167.003L166.433 64.0096H169.079L168.916 64.7424H166.27L164.947 71.1536C164.92 71.2757 164.899 71.3978 164.886 71.52C164.872 71.6421 164.866 71.7778 164.866 71.927C164.866 72.3748 164.964 72.714 165.161 72.9447C165.357 73.1754 165.72 73.2907 166.25 73.2907C166.48 73.2907 166.694 73.2534 166.891 73.1787C167.087 73.1041 167.267 73.0261 167.43 72.9447L167.654 73.5756C167.464 73.6842 167.233 73.7859 166.962 73.8809C166.691 73.9759 166.399 74.0234 166.087 74.0234ZM172.824 74.0234C171.82 74.0234 171.019 73.6876 170.422 73.0159C169.825 72.3443 169.526 71.3911 169.526 70.1563C169.526 69.2472 169.669 68.4025 169.954 67.6223C170.239 66.8421 170.622 66.1671 171.104 65.5972C171.585 65.0273 172.135 64.5795 172.752 64.2539C173.37 63.9282 174.011 63.7654 174.676 63.7654C175.693 63.7654 176.501 64.1012 177.098 64.7729C177.695 65.4445 177.993 66.3977 177.993 67.6325C177.993 68.5416 177.847 69.3863 177.556 70.1665C177.264 70.9467 176.881 71.6217 176.406 72.1916C175.931 72.7615 175.381 73.2093 174.757 73.5349C174.133 73.8606 173.488 74.0234 172.824 74.0234ZM172.905 73.2907C173.434 73.2907 173.95 73.1414 174.452 72.8429C174.954 72.5444 175.405 72.1441 175.805 71.6421C176.206 71.14 176.528 70.5532 176.772 69.8815C177.016 69.2099 177.138 68.4941 177.138 67.7343C177.138 66.6759 176.921 65.872 176.487 65.3224C176.053 64.7729 175.429 64.4981 174.615 64.4981C174.085 64.4981 173.567 64.6474 173.058 64.9459C172.549 65.2444 172.094 65.6447 171.694 66.1467C171.294 66.6488 170.971 67.2356 170.727 67.9073C170.483 68.5789 170.361 69.2879 170.361 70.0342C170.361 71.0926 170.581 71.8999 171.022 72.4562C171.463 73.0125 172.091 73.2907 172.905 73.2907ZM179.703 73.7792L181.677 64.0096H182.369L182.064 65.8618H182.145C182.552 65.2783 183.007 64.7831 183.509 64.376C184.011 63.9689 184.581 63.7654 185.219 63.7654C185.354 63.7654 185.493 63.7756 185.636 63.7959C185.778 63.8163 185.931 63.8604 186.094 63.9282L185.768 64.722C185.673 64.6813 185.568 64.644 185.453 64.6101C185.337 64.5761 185.185 64.5592 184.995 64.5592C184.479 64.5592 183.933 64.7966 183.356 65.2715C182.78 65.7465 182.274 66.4249 181.84 67.3069L180.558 73.7792H179.703ZM184.71 78.2365C184.601 78.2365 184.462 78.2195 184.293 78.1856C184.123 78.1517 183.943 78.0872 183.753 77.9923L184.079 77.3206C184.296 77.4427 184.527 77.5038 184.771 77.5038C185.354 77.5038 185.897 77.2562 186.399 76.7609C186.838 76.3275 187.241 75.7669 187.608 75.0791L188.19 73.942L186.542 64.0096H187.376L188.333 70.1359L188.651 72.3519C188.683 72.5911 188.713 72.8226 188.74 73.0465H188.821L189.564 71.6014C189.815 71.1129 190.076 70.6244 190.348 70.1359L193.645 64.0096H194.5L188.475 74.98C188.258 75.3871 188.024 75.7873 187.773 76.1808C187.522 76.5743 187.244 76.9237 186.939 77.229C186.633 77.5343 186.297 77.7786 185.931 77.9617C185.565 78.1449 185.158 78.2365 184.71 78.2365Z" fill="white"/>
<path d="M58 0H6C2.68629 0 0 2.68629 0 6V58C0 61.3137 2.68629 64 6 64H58C61.3137 64 64 61.3137 64 58V6C64 2.68629 61.3137 0 58 0Z" fill="white"/>
<path d="M24.6234 14.5195C27.5671 14.5195 29.7143 15.2035 31.0649 16.5715C32.4156 17.9395 33.0909 20.0433 33.0909 22.8832V24.3377C33.0909 26.2078 32.7879 27.7316 32.1818 28.9091C31.5758 30.0866 30.6494 30.9351 29.4026 31.4546V31.5585C32.2424 32.5282 33.6623 35.0563 33.6623 39.1429V42.2598C33.6623 45.065 32.9264 47.2035 31.4545 48.6754C29.9827 50.1472 27.8269 50.8832 24.987 50.8832H16V14.5195H24.6234ZM24.2597 34.5195H21.7143V45.6884H24.987C25.9913 45.6884 26.7359 45.42 27.2208 44.8832C27.7056 44.3464 27.9481 43.42 27.9481 42.1039V38.9351C27.9481 37.2728 27.6623 36.1213 27.0909 35.4806C26.5195 34.8399 25.5758 34.5195 24.2597 34.5195ZM24.4675 19.7143H21.7143V29.3247H23.9481C25.0909 29.3247 25.948 29.0304 26.5195 28.4416C27.0909 27.8529 27.3766 26.8659 27.3766 25.4806V23.4546C27.3766 22.1386 27.1429 21.1862 26.6753 20.5975C26.2078 20.0087 25.4719 19.7143 24.4675 19.7143Z" fill="#1B212C"/>
<path d="M42.1816 14.5195H47.8959V50.8832H42.1816V14.5195Z" fill="#1B212C"/>
</svg>
